<?xml version="1.0" encoding="UTF-8" standalone="no"?>
<!DOCTYPE svg PUBLIC "-//W3C//DTD SVG 1.1//EN" "http://www.w3.org/Graphics/SVG/1.1/DTD/svg11.dtd">
<svg width="100%" height="100%" viewBox="0 0 900 900" version="1.1" xmlns="http://www.w3.org/2000/svg" xmlns:xlink="http://www.w3.org/1999/xlink" xml:space="preserve" xmlns:serif="http://www.serif.com/" style="fill-rule:evenodd;clip-rule:evenodd;stroke-linecap:round;stroke-linejoin:round;stroke-miterlimit:1.5;">
    <g transform="matrix(1.52742,0,0,1.52742,-301.174,-384.054)">
        <circle cx="491.793" cy="572.601" r="235.48" style="fill:rgb(232,65,24);stroke:white;stroke-width:9.82px;"/>
    </g>
    <g transform="matrix(1,0,0,1,-126.268,-192.05)">
        <path d="M518.072,284.108C526.264,258.896 549.758,241.827 576.268,241.827C602.777,241.827 626.272,258.896 634.464,284.108C638.233,295.709 640.561,302.872 640.561,302.872C640.561,302.872 648.092,302.872 660.29,302.872C686.8,302.872 710.294,319.942 718.486,345.154C726.678,370.366 717.704,397.986 696.257,413.567C686.389,420.737 680.296,425.164 680.296,425.164C680.296,425.164 682.623,432.328 686.392,443.928C694.584,469.14 685.61,496.76 664.164,512.342C642.717,527.923 613.676,527.923 592.229,512.342C582.361,505.172 576.268,500.745 576.268,500.745C576.268,500.745 570.174,505.172 560.306,512.342C538.86,527.923 509.819,527.923 488.372,512.342C466.926,496.76 457.952,469.14 466.143,443.928C469.913,432.328 472.24,425.164 472.24,425.164C472.24,425.164 466.147,420.737 456.279,413.567C434.832,397.986 425.858,370.366 434.05,345.154C442.242,319.942 465.736,302.872 492.246,302.872C504.443,302.872 511.975,302.872 511.975,302.872C511.975,302.872 514.303,295.709 518.072,284.108Z" style="fill:rgb(76,209,55);stroke:white;stroke-width:20px;"/>
    </g>
</svg>
